<svg width="40" height="51" viewBox="0 0 40 51" fill="none" xmlns="http://www.w3.org/2000/svg">
<path d="M19.5231 50.1152C16.0004 47.1162 12.7352 43.8284 9.76157 40.2862C5.29914 34.9667 2.45125e-06 27.0444 2.45125e-06 19.4952C-0.00193285 15.6398 1.14213 11.8704 3.2874 8.66416C5.43267 5.45792 8.48273 2.95892 12.0515 1.48342C15.6204 0.00792422 19.5475 -0.377739 23.3361 0.375239C27.1246 1.12822 30.6041 2.98599 33.3344 5.71344C35.1521 7.51962 36.5929 9.6677 37.5734 12.0333C38.5538 14.399 39.0545 16.9352 39.0463 19.4952C39.0463 27.0444 33.7471 34.9667 29.2847 40.2862C26.3111 43.8284 23.0458 47.1162 19.5231 50.1152ZM19.5231 11.1443C17.3041 11.1443 15.1759 12.0241 13.6067 13.5902C12.0376 15.1563 11.1561 17.2804 11.1561 19.4952C11.1561 21.71 12.0376 23.8341 13.6067 25.4002C15.1759 26.9663 17.3041 27.8461 19.5231 27.8461C21.7422 27.8461 23.8704 26.9663 25.4396 25.4002C27.0087 23.8341 27.8902 21.71 27.8902 19.4952C27.8902 17.2804 27.0087 15.1563 25.4396 13.5902C23.8704 12.0241 21.7422 11.1443 19.5231 11.1443Z" fill="#FEC31D"/>
</svg>
